<svg 
 xmlns="http://www.w3.org/2000/svg"
 xmlns:xlink="http://www.w3.org/1999/xlink"
 width="23px" height="37px">
<path fill-rule="evenodd"  fill="rgb(255, 255, 255)"
 d="M11.497,37.001 C5.156,37.001 -0.001,31.837 -0.001,25.490 L-0.001,11.416 C-0.001,5.440 4.612,0.468 10.543,-0.007 L12.451,-0.007 C18.383,0.472 22.996,5.444 22.996,11.416 L22.996,25.490 C22.996,31.837 17.838,37.001 11.497,37.001 ZM21.088,11.416 C21.088,6.121 16.785,1.815 11.497,1.815 C6.208,1.815 1.906,6.121 1.906,11.416 L1.906,25.490 C1.906,30.785 6.209,35.091 11.497,35.091 C16.785,35.091 21.088,30.785 21.088,25.490 L21.088,11.416 ZM11.497,13.075 C10.583,13.075 9.840,12.331 9.840,11.416 C9.840,10.501 10.583,9.757 11.497,9.757 C12.410,9.757 13.154,10.501 13.154,11.416 C13.154,12.331 12.411,13.075 11.497,13.075 Z"/>
</svg>