<svg 
 xmlns="http://www.w3.org/2000/svg"
 xmlns:xlink="http://www.w3.org/1999/xlink"
 width="79px" height="76px">
<path fill-rule="evenodd"  fill="rgb(60, 60, 60)"
 d="M76.921,75.997 L2.078,75.997 C0.929,75.997 -0.002,75.057 -0.002,73.899 L-0.002,12.982 L-0.002,2.093 C-0.002,0.934 0.929,-0.006 2.078,-0.006 L76.921,-0.006 C78.069,-0.006 79.000,0.933 79.000,2.093 L79.000,12.982 L79.000,73.899 C79.000,75.058 78.069,75.997 76.921,75.997 ZM74.842,4.192 L4.156,4.192 L4.156,10.883 L74.842,10.883 L74.842,4.192 ZM74.842,15.080 L4.156,15.080 L4.156,71.800 L74.842,71.800 L74.842,15.080 ZM27.748,34.625 C28.459,33.908 29.610,33.908 30.321,34.625 C31.032,35.342 31.032,36.504 30.321,37.221 L25.957,41.628 L30.331,46.043 C31.041,46.760 31.041,47.922 30.331,48.639 C29.976,48.997 29.510,49.177 29.045,49.177 C28.579,49.177 28.115,48.997 27.759,48.638 L22.099,42.926 C21.388,42.209 21.388,41.046 22.099,40.329 L27.748,34.625 ZM39.752,32.847 C40.000,31.864 40.996,31.273 41.964,31.522 C42.938,31.772 43.526,32.773 43.278,33.756 L38.654,52.037 C38.444,52.866 37.704,53.418 36.893,53.418 C36.744,53.418 36.592,53.400 36.441,53.361 C35.467,53.111 34.881,52.111 35.129,51.128 L39.752,32.847 ZM48.666,34.624 C49.376,33.907 50.529,33.907 51.238,34.624 L56.898,40.337 C57.240,40.681 57.432,41.148 57.432,41.635 C57.432,42.122 57.240,42.588 56.898,42.933 L51.247,48.637 C50.892,48.997 50.427,49.177 49.962,49.177 C49.497,49.177 49.030,48.997 48.676,48.638 C47.965,47.921 47.965,46.759 48.676,46.042 L53.041,41.636 L48.666,37.221 C47.956,36.503 47.956,35.342 48.666,34.624 ZM9.181,6.069 C9.984,6.069 10.635,6.727 10.635,7.537 C10.635,8.348 9.984,9.005 9.181,9.005 C8.377,9.005 7.726,8.348 7.726,7.537 C7.726,6.727 8.377,6.069 9.181,6.069 ZM13.531,6.070 C14.334,6.070 14.985,6.727 14.985,7.537 C14.985,8.348 14.334,9.004 13.531,9.004 C12.729,9.004 12.078,8.348 12.078,7.537 C12.078,6.727 12.729,6.070 13.531,6.070 ZM17.881,6.069 C18.684,6.069 19.335,6.727 19.335,7.537 C19.335,8.348 18.684,9.005 17.881,9.005 C17.078,9.005 16.427,8.348 16.427,7.537 C16.427,6.727 17.078,6.069 17.881,6.069 Z"/>
</svg>